<mxfile host="app.diagrams.net" modified="2021-07-16T06:23:30.242Z" agent="5.0 (Windows NT 10.0; Win64; x64) AppleWebKit/537.36 (KHTML, like Gecko) Chrome/91.0.4472.124 Safari/537.36" etag="UBMHPZ09b7p5gu7SITlj" version="14.8.6" type="github">
  <diagram id="fS6i8GB3aAeq0cGz4JQb" name="Page-1">
    <mxGraphModel dx="2031" dy="1134" grid="1" gridSize="10" guides="1" tooltips="1" connect="1" arrows="1" fold="1" page="1" pageScale="1" pageWidth="1654" pageHeight="1169" math="0" shadow="0">
      <root>
        <mxCell id="0" />
        <mxCell id="1" parent="0" />
        <mxCell id="K7XLx4ym4blW93inoASt-127" value="STK_KATEGORİ" style="swimlane;fontStyle=0;childLayout=stackLayout;horizontal=1;startSize=26;fillColor=none;horizontalStack=0;resizeParent=1;resizeParentMax=0;resizeLast=0;collapsible=1;marginBottom=0;" parent="1" vertex="1">
          <mxGeometry x="20" y="20" width="210" height="104" as="geometry" />
        </mxCell>
        <mxCell id="K7XLx4ym4blW93inoASt-128" value="Kategori_ID" style="text;strokeColor=none;fillColor=none;align=left;verticalAlign=top;spacingLeft=4;spacingRight=4;overflow=hidden;rotatable=0;points=[[0,0.5],[1,0.5]];portConstraint=eastwest;" parent="K7XLx4ym4blW93inoASt-127" vertex="1">
          <mxGeometry y="26" width="210" height="26" as="geometry" />
        </mxCell>
        <mxCell id="K7XLx4ym4blW93inoASt-129" value="Kategori_AD" style="text;strokeColor=none;fillColor=none;align=left;verticalAlign=top;spacingLeft=4;spacingRight=4;overflow=hidden;rotatable=0;points=[[0,0.5],[1,0.5]];portConstraint=eastwest;" parent="K7XLx4ym4blW93inoASt-127" vertex="1">
          <mxGeometry y="52" width="210" height="26" as="geometry" />
        </mxCell>
        <mxCell id="K7XLx4ym4blW93inoASt-130" value="Kod" style="text;strokeColor=none;fillColor=none;align=left;verticalAlign=top;spacingLeft=4;spacingRight=4;overflow=hidden;rotatable=0;points=[[0,0.5],[1,0.5]];portConstraint=eastwest;" parent="K7XLx4ym4blW93inoASt-127" vertex="1">
          <mxGeometry y="78" width="210" height="26" as="geometry" />
        </mxCell>
        <mxCell id="K7XLx4ym4blW93inoASt-131" value="STK_STOK_KART" style="swimlane;fontStyle=0;childLayout=stackLayout;horizontal=1;startSize=26;fillColor=none;horizontalStack=0;resizeParent=1;resizeParentMax=0;resizeLast=0;collapsible=1;marginBottom=0;" parent="1" vertex="1">
          <mxGeometry x="430" y="20" width="280" height="220" as="geometry" />
        </mxCell>
        <mxCell id="K7XLx4ym4blW93inoASt-132" value="Stok_Kart_ID" style="text;strokeColor=none;fillColor=none;align=left;verticalAlign=top;spacingLeft=4;spacingRight=4;overflow=hidden;rotatable=0;points=[[0,0.5],[1,0.5]];portConstraint=eastwest;" parent="K7XLx4ym4blW93inoASt-131" vertex="1">
          <mxGeometry y="26" width="280" height="26" as="geometry" />
        </mxCell>
        <mxCell id="K7XLx4ym4blW93inoASt-133" value="Kategori_ID" style="text;strokeColor=none;fillColor=none;align=left;verticalAlign=top;spacingLeft=4;spacingRight=4;overflow=hidden;rotatable=0;points=[[0,0.5],[1,0.5]];portConstraint=eastwest;" parent="K7XLx4ym4blW93inoASt-131" vertex="1">
          <mxGeometry y="52" width="280" height="26" as="geometry" />
        </mxCell>
        <mxCell id="K7XLx4ym4blW93inoASt-134" value="Kart_Adı&#xa;&#xa;Ölçü_Birimi_ID&#xa;&#xa;Kod&#xa;&#xa;Açıklama &#xa;&#xa;Durum (SIFIR/İKİNCİ_EL)&#xa;" style="text;strokeColor=none;fillColor=none;align=left;verticalAlign=top;spacingLeft=4;spacingRight=4;overflow=hidden;rotatable=0;points=[[0,0.5],[1,0.5]];portConstraint=eastwest;" parent="K7XLx4ym4blW93inoASt-131" vertex="1">
          <mxGeometry y="78" width="280" height="142" as="geometry" />
        </mxCell>
        <mxCell id="K7XLx4ym4blW93inoASt-135" value="STK_ÖLÇÜ_BİRİM" style="swimlane;fontStyle=0;childLayout=stackLayout;horizontal=1;startSize=26;fillColor=none;horizontalStack=0;resizeParent=1;resizeParentMax=0;resizeLast=0;collapsible=1;marginBottom=0;" parent="1" vertex="1">
          <mxGeometry x="20" y="250" width="210" height="78" as="geometry" />
        </mxCell>
        <mxCell id="K7XLx4ym4blW93inoASt-136" value="Ölçü_birim_ID" style="text;strokeColor=none;fillColor=none;align=left;verticalAlign=top;spacingLeft=4;spacingRight=4;overflow=hidden;rotatable=0;points=[[0,0.5],[1,0.5]];portConstraint=eastwest;" parent="K7XLx4ym4blW93inoASt-135" vertex="1">
          <mxGeometry y="26" width="210" height="26" as="geometry" />
        </mxCell>
        <mxCell id="K7XLx4ym4blW93inoASt-137" value="Ölçü_birim_AD" style="text;strokeColor=none;fillColor=none;align=left;verticalAlign=top;spacingLeft=4;spacingRight=4;overflow=hidden;rotatable=0;points=[[0,0.5],[1,0.5]];portConstraint=eastwest;" parent="K7XLx4ym4blW93inoASt-135" vertex="1">
          <mxGeometry y="52" width="210" height="26" as="geometry" />
        </mxCell>
        <mxCell id="K7XLx4ym4blW93inoASt-139" value="STK_DEPO" style="swimlane;fontStyle=0;childLayout=stackLayout;horizontal=1;startSize=26;fillColor=none;horizontalStack=0;resizeParent=1;resizeParentMax=0;resizeLast=0;collapsible=1;marginBottom=0;" parent="1" vertex="1">
          <mxGeometry x="840" y="154" width="210" height="140" as="geometry" />
        </mxCell>
        <mxCell id="K7XLx4ym4blW93inoASt-140" value="Depo_ID" style="text;strokeColor=none;fillColor=none;align=left;verticalAlign=top;spacingLeft=4;spacingRight=4;overflow=hidden;rotatable=0;points=[[0,0.5],[1,0.5]];portConstraint=eastwest;" parent="K7XLx4ym4blW93inoASt-139" vertex="1">
          <mxGeometry y="26" width="210" height="26" as="geometry" />
        </mxCell>
        <mxCell id="K7XLx4ym4blW93inoASt-141" value="Depo_AD" style="text;strokeColor=none;fillColor=none;align=left;verticalAlign=top;spacingLeft=4;spacingRight=4;overflow=hidden;rotatable=0;points=[[0,0.5],[1,0.5]];portConstraint=eastwest;" parent="K7XLx4ym4blW93inoASt-139" vertex="1">
          <mxGeometry y="52" width="210" height="26" as="geometry" />
        </mxCell>
        <mxCell id="K7XLx4ym4blW93inoASt-142" value="Birim_ID&#xa;&#xa;Depo_Sorumlu_ID" style="text;strokeColor=none;fillColor=none;align=left;verticalAlign=top;spacingLeft=4;spacingRight=4;overflow=hidden;rotatable=0;points=[[0,0.5],[1,0.5]];portConstraint=eastwest;" parent="K7XLx4ym4blW93inoASt-139" vertex="1">
          <mxGeometry y="78" width="210" height="62" as="geometry" />
        </mxCell>
        <mxCell id="K7XLx4ym4blW93inoASt-143" value="GN_BİRİM" style="swimlane;fontStyle=0;childLayout=stackLayout;horizontal=1;startSize=26;fillColor=none;horizontalStack=0;resizeParent=1;resizeParentMax=0;resizeLast=0;collapsible=1;marginBottom=0;" parent="1" vertex="1">
          <mxGeometry x="1100" y="20" width="210" height="78" as="geometry" />
        </mxCell>
        <mxCell id="K7XLx4ym4blW93inoASt-144" value="Birim_ID" style="text;strokeColor=none;fillColor=none;align=left;verticalAlign=top;spacingLeft=4;spacingRight=4;overflow=hidden;rotatable=0;points=[[0,0.5],[1,0.5]];portConstraint=eastwest;" parent="K7XLx4ym4blW93inoASt-143" vertex="1">
          <mxGeometry y="26" width="210" height="26" as="geometry" />
        </mxCell>
        <mxCell id="K7XLx4ym4blW93inoASt-145" value="Birim_AD" style="text;strokeColor=none;fillColor=none;align=left;verticalAlign=top;spacingLeft=4;spacingRight=4;overflow=hidden;rotatable=0;points=[[0,0.5],[1,0.5]];portConstraint=eastwest;" parent="K7XLx4ym4blW93inoASt-143" vertex="1">
          <mxGeometry y="52" width="210" height="26" as="geometry" />
        </mxCell>
        <mxCell id="K7XLx4ym4blW93inoASt-147" value="GN_KULLANICI" style="swimlane;fontStyle=0;childLayout=stackLayout;horizontal=1;startSize=26;fillColor=none;horizontalStack=0;resizeParent=1;resizeParentMax=0;resizeLast=0;collapsible=1;marginBottom=0;" parent="1" vertex="1">
          <mxGeometry x="1400" y="20" width="210" height="52" as="geometry" />
        </mxCell>
        <mxCell id="K7XLx4ym4blW93inoASt-148" value="Kullanıcı_ID" style="text;strokeColor=none;fillColor=none;align=left;verticalAlign=top;spacingLeft=4;spacingRight=4;overflow=hidden;rotatable=0;points=[[0,0.5],[1,0.5]];portConstraint=eastwest;" parent="K7XLx4ym4blW93inoASt-147" vertex="1">
          <mxGeometry y="26" width="210" height="26" as="geometry" />
        </mxCell>
        <mxCell id="K7XLx4ym4blW93inoASt-151" value="" style="edgeStyle=orthogonalEdgeStyle;rounded=0;orthogonalLoop=1;jettySize=auto;html=1;entryX=0;entryY=0.5;entryDx=0;entryDy=0;" parent="1" source="K7XLx4ym4blW93inoASt-128" target="K7XLx4ym4blW93inoASt-133" edge="1">
          <mxGeometry relative="1" as="geometry">
            <Array as="points">
              <mxPoint x="270" y="59" />
              <mxPoint x="270" y="85" />
            </Array>
          </mxGeometry>
        </mxCell>
        <mxCell id="K7XLx4ym4blW93inoASt-152" value="" style="line;strokeWidth=2;direction=south;html=1;" parent="1" vertex="1">
          <mxGeometry x="240" y="54" width="10" height="10" as="geometry" />
        </mxCell>
        <mxCell id="K7XLx4ym4blW93inoASt-154" style="edgeStyle=orthogonalEdgeStyle;rounded=0;orthogonalLoop=1;jettySize=auto;html=1;entryX=0;entryY=0.296;entryDx=0;entryDy=0;entryPerimeter=0;" parent="1" source="K7XLx4ym4blW93inoASt-136" target="K7XLx4ym4blW93inoASt-134" edge="1">
          <mxGeometry relative="1" as="geometry">
            <Array as="points">
              <mxPoint x="260" y="289" />
              <mxPoint x="260" y="140" />
            </Array>
          </mxGeometry>
        </mxCell>
        <mxCell id="K7XLx4ym4blW93inoASt-155" value="" style="line;strokeWidth=2;direction=south;html=1;" parent="1" vertex="1">
          <mxGeometry x="240" y="284" width="10" height="10" as="geometry" />
        </mxCell>
        <mxCell id="K7XLx4ym4blW93inoASt-156" value="STK_DEPO_STOK_KART" style="swimlane;fontStyle=0;childLayout=stackLayout;horizontal=1;startSize=26;fillColor=none;horizontalStack=0;resizeParent=1;resizeParentMax=0;resizeLast=0;collapsible=1;marginBottom=0;" parent="1" vertex="1">
          <mxGeometry x="550" y="430" width="210" height="140" as="geometry" />
        </mxCell>
        <mxCell id="K7XLx4ym4blW93inoASt-157" value="ID&#xa;&#xa;" style="text;strokeColor=none;fillColor=none;align=left;verticalAlign=top;spacingLeft=4;spacingRight=4;overflow=hidden;rotatable=0;points=[[0,0.5],[1,0.5]];portConstraint=eastwest;" parent="K7XLx4ym4blW93inoASt-156" vertex="1">
          <mxGeometry y="26" width="210" height="26" as="geometry" />
        </mxCell>
        <mxCell id="K7XLx4ym4blW93inoASt-158" value="Depo_ID&#xa;&#xa;Stok_Kart_ID&#xa;&#xa;Miktar / Float" style="text;strokeColor=none;fillColor=none;align=left;verticalAlign=top;spacingLeft=4;spacingRight=4;overflow=hidden;rotatable=0;points=[[0,0.5],[1,0.5]];portConstraint=eastwest;" parent="K7XLx4ym4blW93inoASt-156" vertex="1">
          <mxGeometry y="52" width="210" height="88" as="geometry" />
        </mxCell>
        <mxCell id="9Wo-fl86zyc9dLblu1zC-2" style="edgeStyle=orthogonalEdgeStyle;rounded=0;orthogonalLoop=1;jettySize=auto;html=1;entryX=0;entryY=0.5;entryDx=0;entryDy=0;" edge="1" parent="1" source="K7XLx4ym4blW93inoASt-161" target="K7XLx4ym4blW93inoASt-140">
          <mxGeometry relative="1" as="geometry">
            <mxPoint x="790" y="320" as="targetPoint" />
            <Array as="points">
              <mxPoint x="385" y="620" />
              <mxPoint x="385" y="290" />
              <mxPoint x="790" y="290" />
              <mxPoint x="790" y="193" />
            </Array>
          </mxGeometry>
        </mxCell>
        <mxCell id="K7XLx4ym4blW93inoASt-159" value="STK_DEPO_TRANSFER" style="swimlane;fontStyle=0;childLayout=stackLayout;horizontal=1;startSize=26;fillColor=none;horizontalStack=0;resizeParent=1;resizeParentMax=0;resizeLast=0;collapsible=1;marginBottom=0;" parent="1" vertex="1">
          <mxGeometry x="30" y="530" width="300" height="350" as="geometry" />
        </mxCell>
        <mxCell id="K7XLx4ym4blW93inoASt-160" value="Transfer_ID&#xa;&#xa;" style="text;strokeColor=none;fillColor=none;align=left;verticalAlign=top;spacingLeft=4;spacingRight=4;overflow=hidden;rotatable=0;points=[[0,0.5],[1,0.5]];portConstraint=eastwest;" parent="K7XLx4ym4blW93inoASt-159" vertex="1">
          <mxGeometry y="26" width="300" height="26" as="geometry" />
        </mxCell>
        <mxCell id="K7XLx4ym4blW93inoASt-161" value="Birim_İci_Mi-BOOLEN&#xa;&#xa;Giren_Depo_ID&#xa;&#xa;Çıkan_Depo_ID&#xa;&#xa;Stok_Kart_ID&#xa;&#xa;Miktar / FLOAT&#xa;&#xa;Miktar / FLOAT &#xa;&#xa;Zaman&#xa;&#xa;Onayli_mi / BOOLEN&#xa;&#xa;&#xa;Onay Verince STK_DEPO_STOK_KART &#xa;tablosuna işle" style="text;strokeColor=none;fillColor=none;align=left;verticalAlign=top;spacingLeft=4;spacingRight=4;overflow=hidden;rotatable=0;points=[[0,0.5],[1,0.5]];portConstraint=eastwest;" parent="K7XLx4ym4blW93inoASt-159" vertex="1">
          <mxGeometry y="52" width="300" height="298" as="geometry" />
        </mxCell>
        <mxCell id="K7XLx4ym4blW93inoASt-164" value="" style="line;strokeWidth=4;html=1;perimeter=backbonePerimeter;points=[];outlineConnect=0;" parent="1" vertex="1">
          <mxGeometry x="30" y="790" width="300" height="60" as="geometry" />
        </mxCell>
        <mxCell id="K7XLx4ym4blW93inoASt-165" value="STK_STOK_KART_DEPO_HAREKET" style="swimlane;fontStyle=0;childLayout=stackLayout;horizontal=1;startSize=26;fillColor=none;horizontalStack=0;resizeParent=1;resizeParentMax=0;resizeLast=0;collapsible=1;marginBottom=0;" parent="1" vertex="1">
          <mxGeometry x="1030" y="410" width="230" height="180" as="geometry" />
        </mxCell>
        <mxCell id="K7XLx4ym4blW93inoASt-166" value="ID&#xa;&#xa;" style="text;strokeColor=none;fillColor=none;align=left;verticalAlign=top;spacingLeft=4;spacingRight=4;overflow=hidden;rotatable=0;points=[[0,0.5],[1,0.5]];portConstraint=eastwest;" parent="K7XLx4ym4blW93inoASt-165" vertex="1">
          <mxGeometry y="26" width="230" height="26" as="geometry" />
        </mxCell>
        <mxCell id="K7XLx4ym4blW93inoASt-167" value="İslem_ID&#xa;&#xa;Depo_ID&#xa;&#xa;Stok_Kart_ID&#xa;&#xa;Miktar" style="text;strokeColor=none;fillColor=none;align=left;verticalAlign=top;spacingLeft=4;spacingRight=4;overflow=hidden;rotatable=0;points=[[0,0.5],[1,0.5]];portConstraint=eastwest;" parent="K7XLx4ym4blW93inoASt-165" vertex="1">
          <mxGeometry y="52" width="230" height="128" as="geometry" />
        </mxCell>
        <mxCell id="K7XLx4ym4blW93inoASt-168" value="STK_STOK_KART_İSLEM" style="swimlane;fontStyle=0;childLayout=stackLayout;horizontal=1;startSize=26;fillColor=none;horizontalStack=0;resizeParent=1;resizeParentMax=0;resizeLast=0;collapsible=1;marginBottom=0;" parent="1" vertex="1">
          <mxGeometry x="1410" y="260" width="210" height="170" as="geometry" />
        </mxCell>
        <mxCell id="K7XLx4ym4blW93inoASt-169" value="İslem_ID&#xa;&#xa;" style="text;strokeColor=none;fillColor=none;align=left;verticalAlign=top;spacingLeft=4;spacingRight=4;overflow=hidden;rotatable=0;points=[[0,0.5],[1,0.5]];portConstraint=eastwest;" parent="K7XLx4ym4blW93inoASt-168" vertex="1">
          <mxGeometry y="26" width="210" height="26" as="geometry" />
        </mxCell>
        <mxCell id="K7XLx4ym4blW93inoASt-170" value="Acıklama&#xa;&#xa;Zaman&#xa;&#xa;Teslim_Alan_Eden_ID&#xa;&#xa;İslemTip / Giris-&gt;True / Cikis -&gt;False" style="text;strokeColor=none;fillColor=none;align=left;verticalAlign=top;spacingLeft=4;spacingRight=4;overflow=hidden;rotatable=0;points=[[0,0.5],[1,0.5]];portConstraint=eastwest;" parent="K7XLx4ym4blW93inoASt-168" vertex="1">
          <mxGeometry y="52" width="210" height="118" as="geometry" />
        </mxCell>
        <mxCell id="K7XLx4ym4blW93inoASt-171" value="STK_TESLİM_ALAN_EDEN" style="swimlane;fontStyle=0;childLayout=stackLayout;horizontal=1;startSize=26;fillColor=none;horizontalStack=0;resizeParent=1;resizeParentMax=0;resizeLast=0;collapsible=1;marginBottom=0;" parent="1" vertex="1">
          <mxGeometry x="570" y="750" width="210" height="250" as="geometry" />
        </mxCell>
        <mxCell id="K7XLx4ym4blW93inoASt-172" value="ID&#xa;&#xa;" style="text;strokeColor=none;fillColor=none;align=left;verticalAlign=top;spacingLeft=4;spacingRight=4;overflow=hidden;rotatable=0;points=[[0,0.5],[1,0.5]];portConstraint=eastwest;" parent="K7XLx4ym4blW93inoASt-171" vertex="1">
          <mxGeometry y="26" width="210" height="26" as="geometry" />
        </mxCell>
        <mxCell id="K7XLx4ym4blW93inoASt-173" value="AD_SOYAD&#xa;&#xa;Telefon&#xa;&#xa;Bİrim_ID&#xa;&#xa;TC_No&#xa;&#xa;Dosya_NO&#xa;&#xa;Kurum-ici / BOOLEN&#xa;&#xa;Dıs_mahalle_ID" style="text;strokeColor=none;fillColor=none;align=left;verticalAlign=top;spacingLeft=4;spacingRight=4;overflow=hidden;rotatable=0;points=[[0,0.5],[1,0.5]];portConstraint=eastwest;" parent="K7XLx4ym4blW93inoASt-171" vertex="1">
          <mxGeometry y="52" width="210" height="198" as="geometry" />
        </mxCell>
        <mxCell id="K7XLx4ym4blW93inoASt-174" value="GN_MAHALLE" style="swimlane;fontStyle=0;childLayout=stackLayout;horizontal=1;startSize=26;fillColor=none;horizontalStack=0;resizeParent=1;resizeParentMax=0;resizeLast=0;collapsible=1;marginBottom=0;" parent="1" vertex="1">
          <mxGeometry x="1220" y="750" width="210" height="90" as="geometry" />
        </mxCell>
        <mxCell id="K7XLx4ym4blW93inoASt-175" value="Mahalle_ID&#xa;&#xa;" style="text;strokeColor=none;fillColor=none;align=left;verticalAlign=top;spacingLeft=4;spacingRight=4;overflow=hidden;rotatable=0;points=[[0,0.5],[1,0.5]];portConstraint=eastwest;" parent="K7XLx4ym4blW93inoASt-174" vertex="1">
          <mxGeometry y="26" width="210" height="26" as="geometry" />
        </mxCell>
        <mxCell id="K7XLx4ym4blW93inoASt-176" value="Mahalle_AD" style="text;strokeColor=none;fillColor=none;align=left;verticalAlign=top;spacingLeft=4;spacingRight=4;overflow=hidden;rotatable=0;points=[[0,0.5],[1,0.5]];portConstraint=eastwest;" parent="K7XLx4ym4blW93inoASt-174" vertex="1">
          <mxGeometry y="52" width="210" height="38" as="geometry" />
        </mxCell>
        <mxCell id="9Wo-fl86zyc9dLblu1zC-3" style="edgeStyle=orthogonalEdgeStyle;rounded=0;orthogonalLoop=1;jettySize=auto;html=1;" edge="1" parent="1" source="K7XLx4ym4blW93inoASt-161">
          <mxGeometry relative="1" as="geometry">
            <mxPoint x="390" y="620" as="targetPoint" />
            <Array as="points">
              <mxPoint x="360" y="650" />
              <mxPoint x="360" y="620" />
            </Array>
          </mxGeometry>
        </mxCell>
        <mxCell id="9Wo-fl86zyc9dLblu1zC-4" style="edgeStyle=orthogonalEdgeStyle;rounded=0;orthogonalLoop=1;jettySize=auto;html=1;" edge="1" parent="1" source="K7XLx4ym4blW93inoASt-161">
          <mxGeometry relative="1" as="geometry">
            <mxPoint x="820" y="530" as="targetPoint" />
            <Array as="points">
              <mxPoint x="820" y="680" />
            </Array>
          </mxGeometry>
        </mxCell>
        <mxCell id="9Wo-fl86zyc9dLblu1zC-5" style="edgeStyle=orthogonalEdgeStyle;rounded=0;orthogonalLoop=1;jettySize=auto;html=1;" edge="1" parent="1" source="K7XLx4ym4blW93inoASt-158">
          <mxGeometry relative="1" as="geometry">
            <mxPoint x="790" y="290" as="targetPoint" />
            <Array as="points">
              <mxPoint x="530" y="500" />
              <mxPoint x="530" y="386" />
              <mxPoint x="790" y="386" />
            </Array>
          </mxGeometry>
        </mxCell>
        <mxCell id="9Wo-fl86zyc9dLblu1zC-6" style="edgeStyle=orthogonalEdgeStyle;rounded=0;orthogonalLoop=1;jettySize=auto;html=1;entryX=-0.004;entryY=0.607;entryDx=0;entryDy=0;entryPerimeter=0;" edge="1" parent="1" target="K7XLx4ym4blW93inoASt-170">
          <mxGeometry relative="1" as="geometry">
            <mxPoint x="670" y="790" as="sourcePoint" />
            <mxPoint x="1340" y="390" as="targetPoint" />
            <Array as="points">
              <mxPoint x="840" y="790" />
              <mxPoint x="840" y="640" />
              <mxPoint x="1340" y="640" />
              <mxPoint x="1340" y="384" />
            </Array>
          </mxGeometry>
        </mxCell>
        <mxCell id="9Wo-fl86zyc9dLblu1zC-7" style="edgeStyle=orthogonalEdgeStyle;rounded=0;orthogonalLoop=1;jettySize=auto;html=1;entryX=0;entryY=0.5;entryDx=0;entryDy=0;" edge="1" parent="1" source="K7XLx4ym4blW93inoASt-173" target="K7XLx4ym4blW93inoASt-175">
          <mxGeometry relative="1" as="geometry">
            <Array as="points">
              <mxPoint x="1000" y="990" />
              <mxPoint x="1000" y="789" />
            </Array>
          </mxGeometry>
        </mxCell>
        <mxCell id="9Wo-fl86zyc9dLblu1zC-8" style="edgeStyle=orthogonalEdgeStyle;rounded=0;orthogonalLoop=1;jettySize=auto;html=1;entryX=0;entryY=0.5;entryDx=0;entryDy=0;" edge="1" parent="1" source="K7XLx4ym4blW93inoASt-142" target="K7XLx4ym4blW93inoASt-144">
          <mxGeometry relative="1" as="geometry">
            <Array as="points">
              <mxPoint x="1075" y="240" />
              <mxPoint x="1075" y="59" />
            </Array>
          </mxGeometry>
        </mxCell>
        <mxCell id="9Wo-fl86zyc9dLblu1zC-9" style="edgeStyle=orthogonalEdgeStyle;rounded=0;orthogonalLoop=1;jettySize=auto;html=1;entryX=0;entryY=0.5;entryDx=0;entryDy=0;" edge="1" parent="1" source="K7XLx4ym4blW93inoASt-142" target="K7XLx4ym4blW93inoASt-148">
          <mxGeometry relative="1" as="geometry">
            <mxPoint x="1340" y="60" as="targetPoint" />
            <Array as="points">
              <mxPoint x="1350" y="280" />
              <mxPoint x="1350" y="59" />
            </Array>
          </mxGeometry>
        </mxCell>
        <mxCell id="9Wo-fl86zyc9dLblu1zC-10" style="edgeStyle=orthogonalEdgeStyle;rounded=0;orthogonalLoop=1;jettySize=auto;html=1;entryX=0;entryY=0.5;entryDx=0;entryDy=0;" edge="1" parent="1" source="K7XLx4ym4blW93inoASt-167" target="K7XLx4ym4blW93inoASt-169">
          <mxGeometry relative="1" as="geometry">
            <Array as="points">
              <mxPoint x="1300" y="480" />
              <mxPoint x="1300" y="299" />
            </Array>
          </mxGeometry>
        </mxCell>
        <mxCell id="9Wo-fl86zyc9dLblu1zC-12" style="edgeStyle=orthogonalEdgeStyle;rounded=0;orthogonalLoop=1;jettySize=auto;html=1;entryX=0;entryY=0.5;entryDx=0;entryDy=0;" edge="1" parent="1" source="K7XLx4ym4blW93inoASt-173" target="K7XLx4ym4blW93inoASt-144">
          <mxGeometry relative="1" as="geometry">
            <Array as="points">
              <mxPoint x="940" y="870" />
              <mxPoint x="940" y="340" />
              <mxPoint x="1090" y="340" />
              <mxPoint x="1090" y="59" />
            </Array>
          </mxGeometry>
        </mxCell>
        <mxCell id="9Wo-fl86zyc9dLblu1zC-13" style="edgeStyle=orthogonalEdgeStyle;rounded=0;orthogonalLoop=1;jettySize=auto;html=1;entryX=1;entryY=0.5;entryDx=0;entryDy=0;" edge="1" parent="1">
          <mxGeometry relative="1" as="geometry">
            <mxPoint x="710" y="62" as="targetPoint" />
            <mxPoint x="1030" y="533" as="sourcePoint" />
            <Array as="points">
              <mxPoint x="820" y="533" />
              <mxPoint x="820" y="62" />
            </Array>
          </mxGeometry>
        </mxCell>
        <mxCell id="9Wo-fl86zyc9dLblu1zC-16" style="edgeStyle=orthogonalEdgeStyle;rounded=0;orthogonalLoop=1;jettySize=auto;html=1;" edge="1" parent="1" source="K7XLx4ym4blW93inoASt-158">
          <mxGeometry relative="1" as="geometry">
            <mxPoint x="820" y="320" as="targetPoint" />
            <Array as="points">
              <mxPoint x="820" y="526" />
            </Array>
          </mxGeometry>
        </mxCell>
        <mxCell id="9Wo-fl86zyc9dLblu1zC-19" value="" style="line;strokeWidth=2;direction=south;html=1;" vertex="1" parent="1">
          <mxGeometry x="370" y="614" width="10" height="10" as="geometry" />
        </mxCell>
        <mxCell id="9Wo-fl86zyc9dLblu1zC-20" value="" style="line;strokeWidth=2;direction=south;html=1;" vertex="1" parent="1">
          <mxGeometry x="330" y="675" width="10" height="10" as="geometry" />
        </mxCell>
        <mxCell id="9Wo-fl86zyc9dLblu1zC-21" value="" style="line;strokeWidth=2;direction=south;html=1;" vertex="1" parent="1">
          <mxGeometry x="780" y="865" width="10" height="10" as="geometry" />
        </mxCell>
        <mxCell id="9Wo-fl86zyc9dLblu1zC-22" value="" style="line;strokeWidth=2;direction=south;html=1;" vertex="1" parent="1">
          <mxGeometry x="780" y="985" width="10" height="10" as="geometry" />
        </mxCell>
        <mxCell id="9Wo-fl86zyc9dLblu1zC-24" value="" style="line;strokeWidth=2;direction=south;html=1;" vertex="1" parent="1">
          <mxGeometry x="780" y="785" width="10" height="10" as="geometry" />
        </mxCell>
        <mxCell id="9Wo-fl86zyc9dLblu1zC-25" value="" style="line;strokeWidth=2;direction=south;html=1;" vertex="1" parent="1">
          <mxGeometry x="540" y="495" width="10" height="10" as="geometry" />
        </mxCell>
        <mxCell id="9Wo-fl86zyc9dLblu1zC-26" value="" style="line;strokeWidth=2;direction=south;html=1;" vertex="1" parent="1">
          <mxGeometry x="760" y="520" width="10" height="10" as="geometry" />
        </mxCell>
        <mxCell id="9Wo-fl86zyc9dLblu1zC-27" value="" style="line;strokeWidth=2;direction=south;html=1;" vertex="1" parent="1">
          <mxGeometry x="1018" y="528" width="10" height="10" as="geometry" />
        </mxCell>
        <mxCell id="9Wo-fl86zyc9dLblu1zC-28" value="" style="line;strokeWidth=2;direction=south;html=1;" vertex="1" parent="1">
          <mxGeometry x="1050" y="275" width="10" height="10" as="geometry" />
        </mxCell>
        <mxCell id="9Wo-fl86zyc9dLblu1zC-29" value="" style="line;strokeWidth=2;direction=south;html=1;" vertex="1" parent="1">
          <mxGeometry x="1053" y="235" width="10" height="10" as="geometry" />
        </mxCell>
      </root>
    </mxGraphModel>
  </diagram>
</mxfile>
